<svg xmlns="http://www.w3.org/2000/svg" width="61.438" height="58" viewBox="0 0 61.438 58">
<style>
.fill-primary {
	fill: #30b666;
  }

  .fill-border {
	fill: 291843;
  }
  </style>
  <path class="fill-primary" d="M442.631,1213.88H394.805a5.122,5.122,0,0,1-5.126-5.12v-11.73a5.128,5.128,0,0,1,5.127-5.12h47.826a5.129,5.129,0,0,1,5.127,5.12v11.73A5.123,5.123,0,0,1,442.631,1213.88Zm-36.4,7.31h0a4.546,4.546,0,0,1-4.555-4.54v-4.23a4.554,4.554,0,0,1,4.555-4.55h0a4.554,4.554,0,0,1,4.555,4.55v4.23A4.545,4.545,0,0,1,406.23,1221.19Zm24.977,0h0a4.546,4.546,0,0,1-4.556-4.54v-4.23a4.555,4.555,0,0,1,4.555-4.55h0a4.555,4.555,0,0,1,4.556,4.55v4.23A4.546,4.546,0,0,1,431.207,1221.19Z" transform="translate(-388 -1181.095)"/>
  <path class="fill-border" d="M442.642,1190.27h-6.6a1.639,1.639,0,0,0,.416-1.1,1.661,1.661,0,0,0-1.667-1.66h-4.343a6.708,6.708,0,0,0-6.691-6.52H413.681a6.707,6.707,0,0,0-6.691,6.52h-4.344a1.661,1.661,0,0,0-1.667,1.66,1.635,1.635,0,0,0,.417,1.1h-6.6a6.8,6.8,0,0,0-6.8,6.8v11.76a6.812,6.812,0,0,0,3.906,6.15v15.64a8.579,8.579,0,0,0,8.574,8.57h36.479a8.579,8.579,0,0,0,8.574-8.57v-15.64a6.813,6.813,0,0,0,3.907-6.15v-11.76A6.806,6.806,0,0,0,442.642,1190.27Zm-28.961-5.94h10.076a3.366,3.366,0,0,1,3.361,3.36v2.58h-16.8v-2.58A3.366,3.366,0,0,1,413.681,1184.33Zm14.641,31.3H434.1v1.1a2.891,2.891,0,0,1-5.781,0v-1.1Zm-24.987,0h5.78v1.1a2.89,2.89,0,1,1-5.78,0v-1.1Zm25-3.34a2.889,2.889,0,0,1,5.765,0H428.33Zm-24.988,0a2.889,2.889,0,0,1,5.765,0h-5.765Zm33.616,23.57H400.479a5.246,5.246,0,0,1-5.24-5.24v-14.99H400v1.1a6.224,6.224,0,0,0,12.448,0v-1.1h12.539v1.1a6.225,6.225,0,0,0,12.449,0v-1.1H442.2v14.99A5.245,5.245,0,0,1,436.958,1235.86Zm9.147-27.03a3.464,3.464,0,0,1-3.463,3.46h-5.21a6.223,6.223,0,0,0-12.439,0H412.444a6.222,6.222,0,0,0-12.438,0H394.8a3.464,3.464,0,0,1-3.462-3.46v-11.76a3.464,3.464,0,0,1,3.462-3.46h47.847a3.464,3.464,0,0,1,3.463,3.46v11.76Z" transform="translate(-388 -1181.095)"/>
</svg>
