<svg xmlns="http://www.w3.org/2000/svg" width="42" height="58" viewBox="0 0 42 58">
<style>
.fill-primary {
	fill: #30b666;
  }

  .fill-border {
	fill: 291843;
  }
  </style>
  <path class="fill-primary" d="M810.423,1193.33l1.972-5.67a2.316,2.316,0,0,0-2.2-3.07H796.5a2.316,2.316,0,0,0-2.2,3.07l1.971,5.67a2.318,2.318,0,0,0,2.2,1.56h9.752A2.317,2.317,0,0,0,810.423,1193.33ZM829.9,1219l-20.018-16.27c-0.307-.25,0,0,0.177.98l2.909,14.67,7.759,9.76a1.54,1.54,0,0,0,1.419.55l6.12-.87a1.55,1.55,0,0,0,1.315-1.31l0.874-6.1A1.536,1.536,0,0,0,829.9,1219Z" transform="translate(-790 -1183)"/>
  <path class="fill-border" d="M794.6,1193.94a3.977,3.977,0,0,0,3.762,2.67h9.747a3.979,3.979,0,0,0,3.762-2.67l1.97-5.67a3.974,3.974,0,0,0-3.762-5.27H796.392a3.974,3.974,0,0,0-3.762,5.27Zm1.246-7.36a0.668,0.668,0,0,1,.545-0.28h13.689a0.669,0.669,0,0,1,.631.89l-1.97,5.67a0.668,0.668,0,0,1-.632.45h-9.747a0.668,0.668,0,0,1-.632-0.45l-1.971-5.67A0.663,0.663,0,0,1,795.847,1186.58Zm34.973,31.2-20.007-16.27c-0.047-.04-0.106-0.08-0.178-0.14a3.99,3.99,0,0,0-2.815-1.16h-9.167a3.98,3.98,0,0,0-3.919,3.27l-0.657,3.65a1.656,1.656,0,0,0,3.261.58l0.657-3.65a0.667,0.667,0,0,1,.658-0.54h9.168a0.653,0.653,0,0,1,.389.12,3.59,3.59,0,0,1,.1.42c0,0.01,0,.02,0,0.03l1.809,9.13,3.021,16.78a0.659,0.659,0,0,1-.257.65l-9.253,6.92a0.665,0.665,0,0,1-.8,0l-6.775-5.06,9.322-6.25a1.652,1.652,0,1,0-1.847-2.74l-10.182,6.82a0.662,0.662,0,0,1-.028-0.34l1.075-5.97,10.982-7.36a1.645,1.645,0,0,0,.451-2.29,1.673,1.673,0,0,0-2.3-.45l-8.321,5.58,0.7-3.91a1.656,1.656,0,0,0-3.26-.59l-2.594,14.41a3.934,3.934,0,0,0,1.531,3.87l9.253,6.92a4.006,4.006,0,0,0,4.777,0l9.253-6.91a3.956,3.956,0,0,0,1.53-3.88l-0.894-4.97,3.793,4.77c0,0.01.009,0.01,0.014,0.02a3.193,3.193,0,0,0,2.483,1.18,3.449,3.449,0,0,0,.454-0.04l6.116-.87a3.212,3.212,0,0,0,2.719-2.71l0.874-6.09A3.2,3.2,0,0,0,830.82,1217.78Zm-3,8.48-5.974.85-7.454-9.38-1.017-5.13-1-5.55,16.3,13.25Z" transform="translate(-790 -1183)"/>
</svg>
