<svg xmlns="http://www.w3.org/2000/svg" width="65.13" height="58" viewBox="0 0 65.13 58">
<style>
.fill-primary {
	fill: #30b666;
  }

  .fill-border {
	fill: 291843;
  }
  </style>
  <path class="fill-primary" d="M1188.57,1221.55v3.1a6.163,6.163,0,0,0,6.16,6.16h49.25a6.154,6.154,0,0,0,6.15-6.16v-3.1h-61.56Zm17.69-6.81a3.485,3.485,0,0,0,3.49-3.48v-6.76a3.485,3.485,0,1,0-6.97,0v6.76A3.483,3.483,0,0,0,1206.26,1214.74Zm13.09,0a3.485,3.485,0,0,0,3.49-3.48v-11.83a3.485,3.485,0,1,0-6.97,0v11.83A3.483,3.483,0,0,0,1219.35,1214.74Zm13.09,0a3.485,3.485,0,0,0,3.49-3.48v-16.9a3.485,3.485,0,1,0-6.97,0v16.9A3.483,3.483,0,0,0,1232.44,1214.74Z" transform="translate(-1186.78 -1183)"/>
  <path class="fill-border" d="M1244,1182.98h-49.29a7.932,7.932,0,0,0-7.92,7.92v33.72a7.925,7.925,0,0,0,7.92,7.92h17.11v4.94h-5.95a1.755,1.755,0,0,0,0,3.51h26.96a1.755,1.755,0,1,0,0-3.51h-5.95v-4.94H1244a7.932,7.932,0,0,0,7.92-7.92V1190.9A7.938,7.938,0,0,0,1244,1182.98Zm-20.63,54.5h-8.04v-4.94h8.04v4.94Zm20.63-8.45h-49.29a4.417,4.417,0,0,1-4.41-4.41v-1.29h42.06a1.755,1.755,0,1,0,0-3.51H1190.3V1190.9a4.417,4.417,0,0,1,4.41-4.41H1244a4.417,4.417,0,0,1,4.41,4.41v28.92H1241a1.755,1.755,0,0,0,0,3.51h7.41v1.29A4.417,4.417,0,0,1,1244,1229.03Zm-37.75-29.81a5.245,5.245,0,0,0-5.24,5.24v6.76a5.245,5.245,0,0,0,10.49,0v-6.76A5.254,5.254,0,0,0,1206.25,1199.22Zm1.74,12a1.735,1.735,0,0,1-3.47,0v-6.76a1.735,1.735,0,0,1,3.47,0v6.76Zm11.36-17.07a5.245,5.245,0,0,0-5.24,5.24v11.83a5.245,5.245,0,0,0,10.49,0v-11.83A5.254,5.254,0,0,0,1219.35,1194.15Zm1.74,17.07a1.735,1.735,0,0,1-3.47,0v-11.83a1.735,1.735,0,1,1,3.47,0v11.83Zm11.36-22.15a5.245,5.245,0,0,0-5.24,5.24v16.91a5.245,5.245,0,0,0,10.49,0v-16.91A5.254,5.254,0,0,0,1232.45,1189.07Zm1.74,22.15a1.735,1.735,0,0,1-3.47,0v-16.91a1.735,1.735,0,0,1,3.47,0v16.91Z" transform="translate(-1186.78 -1183)"/>
</svg>
